<?xml version="1.0" encoding="UTF-8"?>
<svg width="613px" height="128px" viewBox="0 0 613 128" version="1.1" xmlns="http://www.w3.org/2000/svg" xmlns:xlink="http://www.w3.org/1999/xlink">
    <title>Horizontal lockup</title>
    <g id="Slide-Presentation" stroke="none" stroke-width="1" fill="none" fill-rule="evenodd">
        <g id="010" transform="translate(-387.000000, -1091.000000)" fill-rule="nonzero">
            <g id="Horizontal-lockup" transform="translate(387.000000, 1091.000004)">
                <g id="LogoFinal" transform="translate(0.000000, 0.000000)">
                    <path d="M20.9558998,45.2635463 C36.1399498,18.7036963 43.7319998,5.42379625 54.0389998,1.73099625 C60.4809998,-0.57699875 67.5189998,-0.57699875 73.9609998,1.73099625 C84.2679998,5.42379625 91.8599998,18.7036963 107.044,45.2635463 C122.131,71.6529963 129.674,84.8479962 127.687,95.6244962 C126.4445,102.360996 122.931,108.461996 117.737,112.899996 C109.4285,120 94.2854998,120 64,120 C33.7142998,120 18.5714498,120 10.2629998,112.899996 C5.0691498,108.461996 1.5553998,102.360996 0.313080798,95.6244962 C-1.6742302,84.8479962 5.8691498,71.6529963 20.9558998,45.2635463 Z" id="Path" fill="#FA5B30"/>
                    <path d="M85.2059998,83.6514962 C77.8704998,95.4104962 74.2024998,101.290496 69.3339998,103.062496 C65.8984998,104.312496 62.1014998,104.312496 58.6659998,103.062496 C53.7974998,101.290496 50.1294998,95.4104962 42.7939498,83.6514962 C35.1488498,71.3959962 31.3263498,65.2684962 32.0975498,60.2369962 C32.6411498,56.6914962 34.5576498,53.4694962 37.4681498,51.2084962 C41.5978498,47.9999962 49.0651998,47.9999962 63.9999998,47.9999962 C78.9349998,47.9999962 86.4019998,47.9999962 90.5319998,51.2084962 C93.4424998,53.4694962 95.3589998,56.6914962 95.9024998,60.2369962 C96.6734998,65.2684962 92.8509998,71.3959962 85.2059998,83.6514962 Z" id="Path" fill="#FFFFFF"/>
                </g>
                <path d="M185.590909,105.029826 C188.289773,105.029826 190.669034,104.668794 192.728693,103.946729 C194.788352,103.224665 196.552083,102.21851 198.019886,100.928263 C199.487689,99.6380171 200.659564,98.1406213 201.535511,96.4360758 L201.535511,96.4360758 L201.961648,96.4360758 L201.961648,103.999996 L216.308238,103.999996 L216.308238,67.2102235 C216.308238,63.9668523 215.680871,61.1792103 214.426136,58.8472974 C213.171401,56.5153845 211.460937,54.6036894 209.294744,53.1122122 C207.128551,51.6207349 204.654593,50.5198826 201.872869,49.8096553 C199.091146,49.0994281 196.185132,48.7443144 193.154829,48.7443144 C188.798769,48.7443144 184.96946,49.4012747 181.666903,50.7151951 C178.364346,52.0291156 175.671401,53.8993807 173.588068,56.3259906 C171.504735,58.7526004 170.107954,61.6231023 169.397727,64.9374963 L169.397727,64.9374963 L183.389204,66.0738599 C183.910038,64.2746175 184.975379,62.7772216 186.585227,61.5816724 C188.195076,60.3861231 190.361269,59.7883485 193.083807,59.7883485 C195.664299,59.7883485 197.658854,60.4038788 199.067471,61.6349394 C200.476089,62.866 201.180398,64.6060569 201.180398,66.8551099 L201.180398,66.8551099 L201.180398,67.0681781 C201.180398,68.2282159 200.742424,69.1041629 199.866477,69.696019 C198.99053,70.287875 197.581913,70.7317671 195.640625,71.0276951 C193.699337,71.3236231 191.142519,71.6373069 187.97017,71.9687463 C185.271307,72.2291629 182.696733,72.6789735 180.246449,73.3181781 C177.796165,73.9573826 175.612216,74.9043523 173.694602,76.1590872 C171.776988,77.413822 170.261837,79.071019 169.149148,81.1306781 C168.036458,83.1903372 167.480113,85.7353182 167.480113,88.7656213 C167.480113,92.3641061 168.267282,95.3648163 169.841619,97.7677519 C171.415956,100.170688 173.564394,101.981767 176.286932,103.200991 C179.009469,104.420214 182.110795,105.029826 185.590909,105.029826 Z M189.923295,94.5894849 C187.603219,94.5894849 185.691524,94.0508959 184.18821,92.9737178 C182.684896,91.8965398 181.933238,90.3281213 181.933238,88.2684622 C181.933238,86.8480076 182.300189,85.6583769 183.034091,84.6995701 C183.767992,83.7407633 184.797822,82.977269 186.123579,82.4090872 C187.449337,81.8409053 189,81.4266061 190.775568,81.1661894 C191.604166,81.0478182 192.527462,80.9116913 193.545454,80.7578088 C194.563447,80.6039262 195.581439,80.4263694 196.599432,80.2251383 C197.617424,80.0239072 198.534801,79.7990019 199.351562,79.5504224 C200.168324,79.3018428 200.813447,79.0236705 201.286932,78.7159053 L201.286932,78.7159053 L201.286932,84.5042576 C201.286932,86.4218713 200.80161,88.1382538 199.830966,89.6534053 C198.860322,91.1685569 197.522727,92.3700247 195.818182,93.2578088 C194.113636,94.1455928 192.148674,94.5894849 189.923295,94.5894849 Z M243.17607,124.454542 L243.17607,95.2642008 L243.637718,95.2642008 C244.324271,96.7793523 245.318589,98.2767481 246.620673,99.7563883 C247.922756,101.236028 249.597709,102.46117 251.64553,103.431814 C253.693352,104.402458 256.185066,104.88778 259.120673,104.88778 C263.263665,104.88778 267.010114,103.816521 270.360019,101.674002 C273.709924,99.531483 276.36144,96.3709716 278.314565,92.1924678 C280.26769,88.0139641 281.244252,82.882572 281.244252,76.7982917 C281.244252,70.5482917 280.238097,65.3458769 278.225786,61.1910474 C276.213476,57.0362178 273.526449,53.923055 270.164707,51.8515588 C266.802964,49.7800625 263.133457,48.7443144 259.156184,48.7443144 C256.102207,48.7443144 253.551307,49.2592292 251.503485,50.2890588 C249.455663,51.3188883 247.798466,52.5972974 246.531894,54.124286 C245.265322,55.6512747 244.300597,57.1486705 243.637718,58.6164735 L243.637718,58.6164735 L242.963002,58.6164735 L242.963002,49.4545417 L228.048229,49.4545417 L228.048229,124.454542 L243.17607,124.454542 Z M254.326638,92.8494281 C251.888191,92.8494281 249.816695,92.1806307 248.11215,90.843036 C246.407604,89.5054413 245.105521,87.6292576 244.2059,85.2144849 C243.306279,82.7997122 242.856468,79.9706402 242.856468,76.727269 C242.856468,73.4838978 243.306279,70.6666629 244.2059,68.2755644 C245.105521,65.8844659 246.401686,64.037875 248.094394,62.7357917 C249.787102,61.4337084 251.864517,60.7826667 254.326638,60.7826667 C256.812434,60.7826667 258.907604,61.4573826 260.61215,62.8068144 C262.316695,64.1562463 263.606941,66.0265114 264.482888,68.4176099 C265.358835,70.8087084 265.796809,73.5785947 265.796809,76.727269 C265.796809,79.8996175 265.352917,82.6990966 264.465133,85.1257065 C263.577349,87.5523163 262.281184,89.4462557 260.576638,90.8075247 C258.872093,92.1687936 256.78876,92.8494281 254.326638,92.8494281 Z M298.921715,42.4232917 C301.170768,42.4232917 303.094301,41.6716345 304.692312,40.1683201 C306.290323,38.6650057 307.089329,36.8598447 307.089329,34.7528372 C307.089329,32.6695038 306.290323,30.87618 304.692312,29.3728656 C303.094301,27.8695512 301.158931,27.117894 298.886204,27.117894 C296.660825,27.117894 294.743211,27.8695512 293.133363,29.3728656 C291.523515,30.87618 290.71859,32.6695038 290.71859,34.7528372 C290.71859,36.8598447 291.523515,38.6650057 293.133363,40.1683201 C294.743211,41.6716345 296.672662,42.4232917 298.921715,42.4232917 Z M306.414613,103.999996 L306.414613,49.4545417 L291.286772,49.4545417 L291.286772,103.999996 L306.414613,103.999996 Z M327.344869,104.923292 C328.883694,104.923292 330.292312,104.538585 331.570721,103.769172 C332.84913,102.99976 333.884878,101.96993 334.677965,100.679684 C335.471052,99.3894375 335.867596,97.9630644 335.867596,96.4005644 C335.867596,94.0804887 335.015323,92.0918523 333.310778,90.4346553 C331.606232,88.7774584 329.617596,87.9488599 327.344869,87.9488599 C325.001119,87.9488599 322.994726,88.7774584 321.325692,90.4346553 C319.656658,92.0918523 318.822141,94.0804887 318.822141,96.4005644 C318.822141,98.7443144 319.656658,100.750706 321.325692,102.419741 C322.994726,104.088775 325.001119,104.923292 327.344869,104.923292 Z M380.057847,103.999996 L399.127449,49.4545417 L383.111824,49.4545417 L371.81921,88.4815303 L371.251028,88.4815303 L359.922903,49.4545417 L343.94279,49.4545417 L363.012392,103.999996 L380.057847,103.999996 Z M414.489547,42.4232917 C416.7386,42.4232917 418.662132,41.6716345 420.260143,40.1683201 C421.858155,38.6650057 422.65716,36.8598447 422.65716,34.7528372 C422.65716,32.6695038 421.858155,30.87618 420.260143,29.3728656 C418.662132,27.8695512 416.726763,27.117894 414.454035,27.117894 C412.228657,27.117894 410.311043,27.8695512 408.701195,29.3728656 C407.091346,30.87618 406.286422,32.6695038 406.286422,34.7528372 C406.286422,36.8598447 407.091346,38.6650057 408.701195,40.1683201 C410.311043,41.6716345 412.240494,42.4232917 414.489547,42.4232917 Z M421.982445,103.999996 L421.982445,49.4545417 L406.854604,49.4545417 L406.854604,103.999996 L421.982445,103.999996 Z M454.169802,104.88778 C457.105408,104.88778 459.597122,104.402458 461.644944,103.431814 C463.692766,102.46117 465.3618,101.236028 466.652047,99.7563883 C467.942293,98.2767481 468.94253,96.7793523 469.652757,95.2642008 L469.652757,95.2642008 L470.291961,95.2642008 L470.291961,103.999996 L485.206734,103.999996 L485.206734,31.2727235 L470.114405,31.2727235 L470.114405,58.6164735 L469.652757,58.6164735 C468.989878,57.1486705 468.025153,55.6512747 466.758581,54.124286 C465.492009,52.5972974 463.834812,51.3188883 461.78699,50.2890588 C459.739168,49.2592292 457.188268,48.7443144 454.134291,48.7443144 C450.133344,48.7443144 446.457918,49.7800625 443.108013,51.8515588 C439.758107,53.923055 437.076999,57.0362178 435.064689,61.1910474 C433.052378,65.3458769 432.046223,70.5482917 432.046223,76.7982917 C432.046223,82.882572 433.022785,88.0139641 434.97591,92.1924678 C436.929035,96.3709716 439.58055,99.531483 442.930456,101.674002 C446.280361,103.816521 450.02681,104.88778 454.169802,104.88778 Z M458.963836,92.8494281 C456.478041,92.8494281 454.388789,92.1687936 452.696081,90.8075247 C451.003372,89.4462557 449.713126,87.5523163 448.825342,85.1257065 C447.937558,82.6990966 447.493666,79.8996175 447.493666,76.727269 C447.493666,73.5785947 447.931639,70.8087084 448.807586,68.4176099 C449.683533,66.0265114 450.97378,64.1562463 452.678325,62.8068144 C454.382871,61.4573826 456.478041,60.7826667 458.963836,60.7826667 C461.402283,60.7826667 463.47378,61.4337084 465.178325,62.7357917 C466.882871,64.037875 468.184954,65.8844659 469.084575,68.2755644 C469.984196,70.6666629 470.434007,73.4838978 470.434007,76.727269 C470.434007,79.9706402 469.978278,82.7997122 469.066819,85.2144849 C468.155361,87.6292576 466.853278,89.5054413 465.160569,90.843036 C463.467861,92.1806307 461.402283,92.8494281 458.963836,92.8494281 Z M522.450993,105.065337 C526.949099,105.065337 530.920454,104.372866 534.365056,102.987922 C537.809658,101.602979 540.626893,99.6616913 542.81676,97.1640588 C545.006628,94.6664262 546.456675,91.7367387 547.166903,88.3749963 L547.166903,88.3749963 L533.175425,87.4517008 C532.654592,88.8248069 531.897016,89.9848447 530.902698,90.9318144 C529.90838,91.8787841 528.712831,92.5890114 527.31605,93.0624963 C525.91927,93.5359811 524.380444,93.7727235 522.699573,93.7727235 C520.166429,93.7727235 517.976562,93.2400531 516.129971,92.1747122 C514.28338,91.1093713 512.857007,89.5942197 511.850851,87.6292576 C510.844696,85.6642955 510.341618,83.3323826 510.341618,80.633519 L510.341618,80.633519 L510.341,80.5989963 L547.486505,80.5980076 L547.486505,76.4431781 C547.486505,71.8030266 546.835463,67.7488125 545.53338,64.280536 C544.231296,60.8122595 542.414298,57.9299205 540.082385,55.633519 C537.750473,53.3371175 535.027935,51.6148163 531.914772,50.4666156 C528.801609,49.3184148 525.445785,48.7443144 521.8473,48.7443144 C516.496921,48.7443144 511.839014,49.9280266 507.873579,52.2954508 C503.908143,54.662875 500.83641,57.9654319 498.65838,62.2031213 C496.480349,66.4408106 495.391334,71.3650531 495.391334,76.9758485 C495.391334,82.7286894 496.480349,87.7061989 498.65838,91.9083769 C500.83641,96.110555 503.943654,99.3539262 507.980113,101.638491 C512.016571,103.923055 516.840198,105.065337 522.450993,105.065337 Z M510.376972,70.8688409 C510.509653,69.0468713 511.006865,67.3716029 511.868607,65.843036 C512.862925,64.079305 514.24195,62.6706875 516.005681,61.6171838 C517.769412,60.56368 519.799478,60.0369281 522.09588,60.0369281 C524.297584,60.0369281 526.232954,60.5163315 527.901988,61.4751383 C529.571022,62.4339451 530.879024,63.7537841 531.825993,65.4346553 C532.772963,67.1155266 533.246448,69.0449773 533.246448,71.2230076 L533.246448,71.2230076 L510.356,71.2239963 L510.376972,70.8688409 Z M582.01059,105.065337 C587.526689,105.065337 592.29113,103.887544 596.303914,101.531956 C600.316698,99.1763694 603.412105,95.8856497 605.590136,91.6597974 C607.768166,87.4339451 608.857181,82.5274584 608.857181,76.9403372 C608.857181,71.3058675 607.768166,66.3757065 605.590136,62.1498542 C603.412105,57.9240019 600.316698,54.6332822 596.303914,52.2776951 C592.29113,49.922108 587.526689,48.7443144 582.01059,48.7443144 C576.494492,48.7443144 571.73005,49.922108 567.717266,52.2776951 C563.704482,54.6332822 560.609075,57.9240019 558.431045,62.1498542 C556.253014,66.3757065 555.163999,71.3058675 555.163999,76.9403372 C555.163999,82.5274584 556.253014,87.4339451 558.431045,91.6597974 C560.609075,95.8856497 563.704482,99.1763694 567.717266,101.531956 C571.73005,103.887544 576.494492,105.065337 582.01059,105.065337 Z M582.081613,93.3465872 C579.548469,93.3465872 577.423706,92.6304413 575.707323,91.1981497 C573.99094,89.765858 572.700694,87.8068144 571.836584,85.321019 C570.972475,82.8352235 570.54042,80.0061516 570.54042,76.8338031 C570.54042,73.6614546 570.972475,70.8323826 571.836584,68.3465872 C572.700694,65.8607917 573.99094,63.8958296 575.707323,62.4517008 C577.423706,61.007572 579.548469,60.2855076 582.081613,60.2855076 C584.591083,60.2855076 586.686253,61.007572 588.367124,62.4517008 C590.047995,63.8958296 591.320486,65.8607917 592.184596,68.3465872 C593.048706,70.8323826 593.480761,73.6614546 593.480761,76.8338031 C593.480761,80.0061516 593.048706,82.8352235 592.184596,85.321019 C591.320486,87.8068144 590.047995,89.765858 588.367124,91.1981497 C586.686253,92.6304413 584.591083,93.3465872 582.081613,93.3465872 Z" id="api.video" fill="#060C19"/>
            </g>
        </g>
    </g>
</svg>