<svg viewBox="0 0 854 801" version="1.1" xmlns="http://www.w3.org/2000/svg" xmlns:xlink="http://www.w3.org/1999/xlink">
    <title>LogoFinal Copy</title>
    <g id="Logo-effects" stroke="none" stroke-width="1" fill="none" fill-rule="evenodd">
        <g id="Logo-Effects" transform="translate(-4400.000000, -800.000000)" fill-rule="nonzero">
            <g id="LogoFinal-Copy" transform="translate(4400.000000, 800.000000)">
                <path d="M139.815145,301.992748 C241.121229,124.788748 291.774438,36.1869156 360.541453,11.5490156 C403.521672,-3.84963852 450.478328,-3.84963852 493.458547,11.5490156 C562.225563,36.1869156 612.878438,124.788748 714.184188,301.992748 C814.842766,478.059859 865.168719,566.09525 851.911703,637.994711 C843.621898,682.939797 820.180266,723.644906 785.526547,753.254688 C730.093273,800.625 629.06107,800.625 427.000001,800.625 C224.937595,800.625 123.906393,800.625 68.4734531,753.254688 C33.8207352,723.644906 10.3774344,682.939797 2.0888373,637.994711 C-11.1702533,566.09525 39.1582352,478.059859 139.815145,301.992748 Z" id="Path" fill="#FA5B30"></path>
                <path d="M568.483781,558.112352 C519.542242,636.56693 495.069805,675.797555 462.587781,687.620117 C439.666555,695.959961 414.333445,695.959961 391.412219,687.620117 C358.930195,675.797555 334.457758,636.56693 285.515885,558.112352 C234.508734,476.345188 209.005491,435.463273 214.150841,401.893734 C217.777673,378.238602 230.564321,356.74182 249.982813,341.656711 C277.535655,320.25 327.356881,320.25 427,320.25 C526.644453,320.25 576.463344,320.25 604.018187,341.656711 C623.43668,356.74182 636.223328,378.238602 639.849492,401.893734 C644.993508,435.463273 619.490266,476.345188 568.483781,558.112352 Z" id="Path" fill="#FFFFFF"></path>
            </g>
        </g>
    </g>
</svg>